# xmcd CD database file generated by Grip 2.95
# 
# Track frame offsets:
#       150
#       13502
#       26312
#       44382
#       64325
#       85975
#       105027
#       127320
#       167305
#       182575
# 
# Disc length: 3051 seconds
# 
# Revision: 3
# Processed by: cddbd v1.4b41PL2 Copyright (c) Steve Scherf et al.
# Submitted via: Grip 2.95
# 
DISCID=720be90a
DTITLE=Janis Joplin - Magic of Love
DYEAR=1900
DGENRE=
TTITLE0=Magic Of Love
TTITLE1=Down on Me
TTITLE2=Piece of my Heart
TTITLE3=Farewell Song
TTITLE4=Bye Bye Baby
TTITLE5=Light Is faster than Sound
TTITLE6=Women is Losers
TTITLE7=All is Loneliness
TTITLE8=Call on me
TTITLE9=Ball and Chain
EXTD=
EXTT0=
EXTT1=
EXTT2=
EXTT3=
EXTT4=
EXTT5=
EXTT6=
EXTT7=
EXTT8=
EXTT9=
PLAYORDER=
